<?xml version="1.0" standalone="no"?>
<!DOCTYPE svg PUBLIC "-//W3C//DTD SVG 20010904//EN"
 "http://www.w3.org/TR/2001/REC-SVG-20010904/DTD/svg10.dtd">
<svg version="1.0" xmlns="http://www.w3.org/2000/svg"
 width="2048.000000pt" height="2048.000000pt" viewBox="0 0 2048.000000 2048.000000"
 preserveAspectRatio="xMidYMid meet">
<metadata>
Created by potrace 1.11, written by Peter Selinger 2001-2013
</metadata>
<g transform="translate(0.000000,2048.000000) scale(0.100000,-0.100000)"
fill="#000000" stroke="none">
<path d="M0 10240 l0 -10241 6503 4 c3576 1 6563 6 6637 10 74 4 187 9 250 12
199 9 333 16 380 20 25 2 90 6 145 10 55 3 120 8 145 10 25 3 81 7 125 10 44
3 98 7 120 10 22 2 72 7 110 10 39 4 84 8 100 10 17 2 59 7 95 10 36 3 94 10
130 15 36 5 94 12 130 15 36 4 74 9 85 11 11 2 56 8 100 14 44 6 91 12 105 14
14 3 61 10 105 16 44 7 89 14 100 16 21 4 44 8 135 24 30 5 68 12 84 14 16 3
52 10 80 15 28 6 62 12 76 15 120 21 311 63 500 111 58 15 121 31 141 36 20 5
99 27 175 49 77 22 146 43 154 45 162 46 573 197 746 276 27 12 74 33 104 47
87 39 345 170 405 205 11 7 43 25 70 41 129 74 318 198 440 289 93 70 158 120
165 127 3 3 46 40 95 81 458 386 859 936 1113 1524 63 145 153 387 177 475 3
8 14 47 25 85 18 60 67 240 74 270 2 6 6 28 10 50 4 22 12 54 17 70 4 17 11
46 14 65 3 19 10 53 15 75 5 22 11 56 14 75 3 19 8 46 10 60 3 14 7 41 10 60
3 19 7 44 10 55 2 11 7 47 11 80 4 32 8 66 10 75 2 8 6 44 10 80 3 36 8 76 10
90 3 24 13 119 20 210 15 177 20 347 20 620 -1 346 -5 415 -45 665 -11 66 -22
131 -25 145 -7 37 -35 162 -41 185 -3 11 -7 30 -10 43 -29 143 -166 526 -258
725 -20 42 -36 81 -36 86 0 5 -7 14 -15 21 -8 7 -15 18 -15 25 0 7 -32 71 -71
141 -39 71 -79 143 -88 159 -9 17 -25 44 -36 60 -253 396 -441 633 -734 926
-102 102 -238 229 -301 283 -598 510 -1305 888 -2070 1107 -58 17 -112 32
-120 34 -8 2 -42 10 -75 19 -50 13 -145 34 -230 52 -11 2 -31 6 -45 9 -26 6
-35 7 -110 21 -25 4 -47 8 -50 9 -16 3 -101 16 -135 20 -87 11 -96 15 -93 43
2 17 11 28 28 33 14 4 106 30 205 58 797 223 1483 526 2035 899 103 70 311
222 330 242 3 3 46 39 95 79 108 89 404 385 495 495 352 422 597 869 777 1416
68 207 154 567 178 740 3 25 10 70 15 100 5 30 12 82 16 114 3 33 7 67 9 76 2
10 6 53 10 96 4 43 8 90 10 104 18 124 26 761 12 980 -7 116 -32 357 -42 410
-2 9 -6 41 -10 71 -5 42 -42 237 -70 369 -38 183 -184 631 -239 735 -9 17 -16
33 -16 37 0 16 -132 280 -191 384 -278 485 -678 939 -1121 1269 -40 30 -77 58
-83 63 -63 52 -319 214 -555 351 -45 26 -342 174 -411 204 -281 125 -546 226
-781 297 -215 66 -296 89 -334 99 -21 5 -95 24 -164 41 -69 18 -136 34 -150
36 -14 3 -31 7 -39 9 -7 3 -48 13 -90 21 -42 9 -80 17 -86 18 -5 1 -23 5 -40
9 -16 4 -41 9 -55 11 -14 3 -50 9 -80 15 -30 6 -68 13 -85 16 -16 2 -41 7 -55
10 -14 3 -45 8 -70 11 -25 3 -52 7 -60 9 -8 3 -31 7 -50 10 -238 34 -313 45
-355 50 -27 3 -61 8 -75 10 -14 2 -56 6 -93 10 -37 3 -76 8 -85 10 -9 1 -57 6
-106 10 -50 4 -97 8 -105 10 -9 2 -63 6 -121 10 -58 3 -117 8 -131 10 -15 2
-87 6 -160 10 -74 4 -156 10 -184 13 -27 2 -3104 6 -6837 9 l-6788 3 0 -10240z
m9910 6356 c69 -4 132 -9 140 -11 8 -2 51 -7 95 -10 44 -4 82 -8 85 -10 3 -2
30 -6 60 -9 52 -6 70 -9 130 -21 14 -2 41 -7 60 -10 203 -32 542 -142 740
-240 156 -78 235 -127 395 -248 101 -76 289 -292 368 -422 94 -155 198 -439
222 -610 3 -23 7 -51 10 -64 26 -135 26 -477 0 -639 -10 -63 -36 -187 -44
-212 -5 -14 -14 -45 -21 -70 -17 -59 -76 -200 -113 -270 -128 -243 -367 -490
-627 -650 -62 -38 -299 -160 -310 -160 -4 0 -25 -8 -46 -17 -22 -9 -41 -17
-44 -18 -3 -1 -17 -7 -32 -13 -32 -13 -250 -82 -275 -87 -10 -2 -18 -4 -18 -5
0 -1 -7 -3 -15 -5 -8 -2 -35 -8 -60 -14 -25 -7 -56 -14 -70 -16 -14 -3 -36 -8
-50 -11 -26 -6 -47 -10 -90 -19 -77 -16 -257 -42 -335 -49 -27 -3 -66 -7 -85
-10 -35 -5 -157 -15 -280 -22 -97 -6 -2288 -6 -2297 -1 -6 4 -10 3874 -4 3942
1 12 2312 13 2511 1z m115 -8189 c144 -13 192 -18 285 -28 52 -6 106 -12 120
-14 14 -3 43 -7 65 -10 267 -39 593 -123 760 -195 22 -9 71 -30 109 -46 193
-80 415 -227 566 -376 153 -149 317 -401 370 -565 7 -21 15 -42 19 -48 3 -5 6
-14 8 -20 1 -5 15 -55 31 -111 17 -55 33 -118 36 -140 4 -21 11 -64 16 -94 50
-296 41 -635 -25 -906 -23 -98 -82 -272 -106 -316 -7 -13 -14 -27 -15 -33 -1
-5 -25 -50 -53 -99 -143 -249 -346 -464 -597 -633 -97 -66 -106 -71 -134 -85
-14 -7 -27 -16 -30 -19 -12 -16 -286 -141 -410 -187 -125 -46 -313 -105 -371
-116 -13 -3 -24 -5 -24 -6 0 -2 -12 -4 -55 -13 -14 -3 -45 -10 -70 -16 -47
-10 -69 -15 -160 -30 -62 -11 -92 -15 -205 -30 -153 -19 -254 -29 -390 -37
-122 -7 -2355 -7 -2362 0 -5 4 -8 4104 -4 4174 1 11 230 12 1279 9 702 -2
1309 -7 1347 -10z"/>
</g>
</svg>
